<svg id="Layer_1" data-name="Layer 1" xmlns="http://www.w3.org/2000/svg" viewBox="0 0 51 43.01"><defs><style>.cls-1{stroke:#fff;}</style></defs><title>insert-money-euro-black</title><path id="insert-money-euro" class="cls-1" d="M8.48.5H5A4.54,4.54,0,0,0,.5,5V6H.7A4.47,4.47,0,0,0,5,9.51H7.5V34.35a.86.86,0,0,0,0,.32v6.84a1,1,0,0,0,1,1h34a1,1,0,0,0,1-1V34.68a.86.86,0,0,0,0-.32V9.51H46A4.45,4.45,0,0,0,50.29,6h.21V5A4.54,4.54,0,0,0,46,.51H42.67a1.82,1.82,0,0,0-.33,0H8.48ZM5,2.51H7.5v5H5A2.55,2.55,0,0,1,2.5,5,2.56,2.56,0,0,1,5,2.51Zm4.5,0h32v31H9.5Zm34,0H46A2.56,2.56,0,0,1,48.5,5,2.55,2.55,0,0,1,46,7.51H43.5Zm-16.32,6a6,6,0,0,0-4.6,2A9.32,9.32,0,0,0,20.45,15H19.13l-.63,1.5h1.79c0,.26,0,.44,0,.75s0,.5,0,.75H19.13l-.63,1.5h1.86q1,7,6.82,7a6.54,6.54,0,0,0,3.67-1V22.89a8.18,8.18,0,0,1-1.64,1.29,4.32,4.32,0,0,1-2,.46q-3.7,0-4.51-5.13h5.2L28.5,18h-6c0-.25,0-.49,0-.75s0-.5,0-.75h6.35L29.5,15H22.74A8,8,0,0,1,24,11.94a3.59,3.59,0,0,1,3-1.56,4.84,4.84,0,0,1,3.41,1.68l1.1-2A7.36,7.36,0,0,0,27.18,8.51ZM9.5,35.51h32v5H9.5Z" transform="translate(0 0)"/></svg>