<svg xmlns="http://www.w3.org/2000/svg" width="51" height="43.014" viewBox="0 0 51 43.014">
  <path id="insert-money-euro" d="M7.984,3.986A1,1,0,0,0,7.84,4H4.5A4.531,4.531,0,0,0,0,8.5v1H.205A4.47,4.47,0,0,0,4.5,13H7V37.832a1,1,0,0,0,0,.326V45a1,1,0,0,0,1,1H42a1,1,0,0,0,1-1V38.168a1,1,0,0,0,0-.326V13h2.5a4.47,4.47,0,0,0,4.295-3.5H50v-1A4.531,4.531,0,0,0,45.5,4H42.168a1,1,0,0,0-.326,0H8.154A1,1,0,0,0,7.984,3.986ZM4.5,6H7v5H4.5A2.556,2.556,0,0,1,2,8.5,2.556,2.556,0,0,1,4.5,6ZM9,6H41V37H9ZM43,6h2.5A2.556,2.556,0,0,1,48,8.5,2.556,2.556,0,0,1,45.5,11H43ZM26.684,12a5.946,5.946,0,0,0-4.605,1.969A9.25,9.25,0,0,0,19.953,18.5H18.625L18,20h1.787c-.015.252-.039.438-.039.75s.014.5.022.75H18.625L18,23h1.857q1.028,6.966,6.826,6.973a6.56,6.56,0,0,0,3.672-1.043V26.379a8.308,8.308,0,0,1-1.645,1.285,4.316,4.316,0,0,1-2.027.463q-3.709,0-4.514-5.127h5.205L28,21.5H22.037c-.015-.256-.039-.492-.039-.75s.013-.508.031-.75h6.346L29,18.5H22.24a7.856,7.856,0,0,1,1.293-3.076,3.564,3.564,0,0,1,2.959-1.557A4.865,4.865,0,0,1,29.9,15.543L31,13.531A7.388,7.388,0,0,0,26.684,12ZM9,39H41v5H9Z" transform="translate(0.5 -3.486)" fill="#fff" stroke="#fff" stroke-width="1"/>
</svg>
