<svg id="Layer_1" data-name="Layer 1" xmlns="http://www.w3.org/2000/svg" viewBox="0 0 48.78 48.77"><defs><style>.cls-1{fill:#1dbcf3;stroke:#fff;}</style></defs><title>refund-blue</title><path id="refund-2" class="cls-1" d="M24.38.5a23.85,23.85,0,0,0-18.69,9V2.58a1,1,0,0,0-2.08,0V13H14a1,1,0,0,0,0-2.08H7.27A21.8,21.8,0,1,1,24.38,46.19H23.33v2.07h2.09v0A23.88,23.88,0,0,0,24.38.5Zm-1,9.35V13A6.82,6.82,0,0,0,19,14.92a7.09,7.09,0,0,0-1.89,4.62c0,4.47,3.91,5.33,7.05,6,3.36.75,5.42,1.34,5.42,4,0,4.08-5,4.15-5.2,4.16-5,0-5.18-3.74-5.19-4.17H17.11c0,2,1.34,5.72,6.23,6.18v3.17h2.08V35.74c2.59-.32,6.23-1.86,6.23-6.17s-3.9-5.33-7-6c-3.36-.74-5.42-1.34-5.42-4a5.13,5.13,0,0,1,.66-2.32c.83-1.44,2.36-2.17,4.53-2.17,3.95,0,4.15,3.74,4.16,4.16l2.07,0A6.08,6.08,0,0,0,25.42,13V9.85ZM.5,23.34v2.09H2.58V23.34Zm2.18,3.77-2,.44.22,1v0l.22,1,2-.44-.22-1v0Zm.82,3.73-1.93.77.38,1v0l.39,1,1.93-.77-.39-1v0ZM5,34.36,3.18,35.44l.53.89h0l.54.89L6,36.16l-.54-.89v0ZM7,37.58,5.43,38.93l.67.79v0l.67.79,1.59-1.35-.68-.79h0ZM9.59,40.4,8.24,42l.79.67v0l.79.67,1.35-1.58-.79-.67v0Zm3,2.33L11.53,44.5l.89.54h0l.88.54,1.08-1.78-.89-.54h0ZM16,44.49l-.77,1.93,1,.39h0l1,.38.78-1.93-1-.38h0Zm3.63,1.16-.44,2,1,.23h0l1,.22.44-2-1-.22h0Z" transform="translate(0 0)"/></svg>