<svg xmlns="http://www.w3.org/2000/svg" width="48.766" height="48.766" viewBox="0 0 48.766 48.766">
  <path id="refund-2" d="M25.883,2A23.837,23.837,0,0,0,7.192,11.033V4.077a1.038,1.038,0,1,0-2.077,0V14.461H15.5a1.038,1.038,0,1,0,0-2.077H8.77A21.8,21.8,0,1,1,25.883,47.689H24.834v.951a1.038,1.038,0,0,0,0,.172v.953h2.087V49.74A23.881,23.881,0,0,0,25.883,2Zm-1.038,9.346v3.17A6.829,6.829,0,0,0,20.5,16.424a7,7,0,0,0-1.886,4.614c0,4.467,3.906,5.336,7.044,6.034,3.359.745,5.417,1.338,5.417,4,0,4.081-4.982,4.153-5.192,4.154-4.994,0-5.187-3.736-5.192-4.162l-1.038.008H18.614c0,2.019,1.333,5.722,6.23,6.182v3.164h2.077V37.238c2.594-.318,6.23-1.853,6.23-6.163,0-4.467-3.906-5.336-7.044-6.034-3.359-.745-5.417-1.339-5.417-4.012a5.169,5.169,0,0,1,.659-2.318c.834-1.442,2.359-2.174,4.533-2.174,3.951,0,4.144,3.743,4.154,4.166l2.077-.026a6.082,6.082,0,0,0-5.192-6.143V11.346ZM2,24.845v2.089H4.077V24.845Zm2.178,3.762-2.03.44.219,1.014,0,.02L2.59,31.1l2.03-.438L4.4,29.641l0-.018ZM5,32.336l-1.929.771.383.963.008.02.385.963,1.929-.769-.385-.965L5.379,33.3Zm1.46,3.529L4.677,36.938l.537.89.01.016.537.888L7.539,37.66,7,36.772l-.01-.018Zm2.052,3.219L6.926,40.429l.671.791.014.016.671.791,1.584-1.345-.673-.791-.012-.016ZM11.086,41.9l-1.349,1.58.791.673.014.014.791.673,1.349-1.58-.791-.673-.014-.014Zm3.022,2.328L13.031,46l.888.539.016.01.888.537L15.9,45.314l-.888-.539L15,44.765Zm3.375,1.767-.773,1.929.963.385.018.008.963.387.773-1.929-.963-.385-.018-.008Zm3.628,1.152-.444,2.028,1.014.223.02,0,1.014.221.444-2.028-1.014-.223-.02,0Z" transform="translate(-1.5 -1.5)" fill="#fff" stroke="#fff" stroke-width="1"/>
</svg>
