<svg id="Layer_1" data-name="Layer 1" xmlns="http://www.w3.org/2000/svg" viewBox="0 0 26.96 26.96"><defs><style>.cls-1{fill:none;stroke:#2b2d42;stroke-linecap:round;stroke-linejoin:round;stroke-width:2px;}</style></defs><title>setting</title><path id="Path_138" data-name="Path 138" class="cls-1" d="M21.88,16.89A1.87,1.87,0,0,0,22.25,19l.07.07a2.27,2.27,0,1,1-3.14,3.28l-.07-.07L19,22.16a1.89,1.89,0,0,0-2.67.05,1.92,1.92,0,0,0-.53,1.29v.19a2.27,2.27,0,1,1-4.54,0h0v-.1a1.86,1.86,0,0,0-1.22-1.71A1.89,1.89,0,0,0,8,22.25l-.07.07a2.27,2.27,0,1,1-3.27-3.14l.06-.07L4.8,19a1.88,1.88,0,0,0,0-2.67,2,2,0,0,0-1.3-.53H3.27a2.27,2.27,0,0,1,0-4.54h.1a1.85,1.85,0,0,0,1.71-1.22A1.87,1.87,0,0,0,4.71,8l-.07-.07A2.27,2.27,0,0,1,7.79,4.67l.06.06.07.07A1.87,1.87,0,0,0,10,5.17h.09a1.86,1.86,0,0,0,1.13-1.71V3.27a2.27,2.27,0,0,1,4.54,0v.1a1.89,1.89,0,0,0,1.9,1.87A1.86,1.86,0,0,0,19,4.71L19,4.64a2.27,2.27,0,1,1,3.21,3.21l-.07.07A1.89,1.89,0,0,0,21.79,10v.09a1.86,1.86,0,0,0,1.71,1.13h.19a2.27,2.27,0,0,1,0,4.54h-.1a1.86,1.86,0,0,0-1.71,1.14Z" transform="translate(0 0)"/><path id="Path_137" data-name="Path 137" class="cls-1" d="M19.1,13.48a5.62,5.62,0,1,1-5.62-5.62h0A5.62,5.62,0,0,1,19.1,13.48Z" transform="translate(0 0)"/></svg>