<svg xmlns="http://www.w3.org/2000/svg" xmlns:xlink="http://www.w3.org/1999/xlink" width="141" height="141" viewBox="0 0 141 141">
  <defs>
    <clipPath id="clip-path">
      <rect id="Rectangle_20" data-name="Rectangle 20" width="141" height="141" transform="translate(0 0.049)" fill="none"/>
    </clipPath>
  </defs>
  <g id="Group_35" data-name="Group 35" transform="translate(0 -0.049)" clip-path="url(#clip-path)">
    <path id="Path_47" data-name="Path 47" d="M14.5,48.5a34,34,0,1,0,34-34,34,34,0,0,0-34,34" transform="translate(22.021 22.021)" fill="#1dbcf3"/>
    <path id="Path_48" data-name="Path 48" d="M38.36,21.351a2.505,2.505,0,0,1-1.227-.32L22.465,12.84a2.517,2.517,0,0,1,.005-4.4L37.141.315a2.512,2.512,0,0,1,2.431,0l14.8,8.123a2.517,2.517,0,0,1,.008,4.41l-14.8,8.191a2.478,2.478,0,0,1-1.219.315m-9.486-10.7,9.491,5.3,9.576-5.3L38.365,5.4Z" transform="translate(32.151 -0.001)" fill="#fff"/>
    <path id="Path_49" data-name="Path 49" d="M38.361,35.4a2.5,2.5,0,0,1-1.227-.32L22.463,26.891a2.519,2.519,0,0,1-1.292-2.2V5.744a2.519,2.519,0,0,1,5.037,0v17.47L38.366,30,50.64,23.209V5.744a2.519,2.519,0,0,1,5.037,0V24.692a2.52,2.52,0,0,1-1.3,2.2l-14.8,8.191a2.526,2.526,0,0,1-1.219.315" transform="translate(32.153 4.897)" fill="#fff"/>
    <path id="Path_50" data-name="Path 50" d="M29.515,30.463A2.52,2.52,0,0,1,27,27.944V9a2.519,2.519,0,1,1,5.037,0V27.944a2.52,2.52,0,0,1-2.519,2.519" transform="translate(40.999 9.836)" fill="#fff"/>
    <path id="Path_51" data-name="Path 51" d="M38.332,41.359a2.517,2.517,0,0,1-1.229-.322L22.427,32.826a2.519,2.519,0,0,1,.01-4.4l14.677-8.11a2.525,2.525,0,0,1,2.431,0l14.775,8.11a2.519,2.519,0,0,1,.013,4.41L39.556,41.042a2.513,2.513,0,0,1-1.224.317M28.839,30.642l9.5,5.315L47.9,30.642,38.337,25.4Z" transform="translate(32.101 30.374)" fill="#fff"/>
    <path id="Path_52" data-name="Path 52" d="M38.332,55.409a2.537,2.537,0,0,1-1.227-.317L22.417,46.9a2.516,2.516,0,0,1-1.28-2.191V25.739a2.519,2.519,0,1,1,5.037,0l.058,17.53,12.1,6.74,12.254-6.788V25.739a2.519,2.519,0,1,1,5.037,0V44.7a2.517,2.517,0,0,1-1.3,2.2L39.551,55.094a2.519,2.519,0,0,1-1.219.315" transform="translate(32.101 35.264)" fill="#fff"/>
    <path id="Path_53" data-name="Path 53" d="M29.483,50.458a2.52,2.52,0,0,1-2.519-2.519V29A2.519,2.519,0,0,1,32,29V47.94a2.52,2.52,0,0,1-2.519,2.519" transform="translate(40.951 40.215)" fill="#fff"/>
    <path id="Path_54" data-name="Path 54" d="M38.324,61.351a2.5,2.5,0,0,1-1.227-.32L22.426,52.84a2.518,2.518,0,0,1,.008-4.4l14.672-8.123a2.512,2.512,0,0,1,2.431,0l14.8,8.123a2.517,2.517,0,0,1,.008,4.41l-14.8,8.191a2.492,2.492,0,0,1-1.219.315m-9.488-10.7,9.493,5.3,9.574-5.3L38.329,45.4Z" transform="translate(32.097 60.748)" fill="#fff"/>
    <path id="Path_55" data-name="Path 55" d="M38.324,75.4a2.5,2.5,0,0,1-1.227-.32L22.426,66.891a2.519,2.519,0,0,1-1.292-2.2V45.744a2.519,2.519,0,0,1,5.037,0v17.47L38.329,70,50.6,63.209V45.744a2.519,2.519,0,1,1,5.037,0V64.692a2.52,2.52,0,0,1-1.3,2.2l-14.8,8.191a2.527,2.527,0,0,1-1.219.315" transform="translate(32.097 65.646)" fill="#fff"/>
    <path id="Path_56" data-name="Path 56" d="M29.478,70.463a2.52,2.52,0,0,1-2.519-2.519V49A2.519,2.519,0,0,1,32,49V67.944a2.52,2.52,0,0,1-2.519,2.519" transform="translate(40.943 70.585)" fill="#fff"/>
    <path id="Path_57" data-name="Path 57" d="M59.49,51.878a2.514,2.514,0,0,1-1.229-.32L43.592,43.367a2.518,2.518,0,0,1,.008-4.4l14.669-8.123a2.517,2.517,0,0,1,2.433,0l14.8,8.123a2.517,2.517,0,0,1,.008,4.41l-14.8,8.191a2.5,2.5,0,0,1-1.219.315M50,41.179l9.493,5.3,9.574-5.3L59.5,35.925Z" transform="translate(64.242 46.362)" fill="#fff"/>
    <path id="Path_58" data-name="Path 58" d="M59.49,65.93a2.5,2.5,0,0,1-1.227-.32L43.592,57.419a2.524,2.524,0,0,1-1.292-2.2V36.272a2.519,2.519,0,0,1,5.037,0v17.47L59.5,60.53l12.274-6.793V36.272a2.519,2.519,0,0,1,5.037,0V55.22a2.515,2.515,0,0,1-1.3,2.2l-14.8,8.191a2.527,2.527,0,0,1-1.219.315" transform="translate(64.242 51.261)" fill="#fff"/>
    <path id="Path_59" data-name="Path 59" d="M50.644,60.991a2.52,2.52,0,0,1-2.519-2.519V39.524a2.519,2.519,0,0,1,5.037,0V58.472a2.52,2.52,0,0,1-2.519,2.519" transform="translate(73.089 56.2)" fill="#fff"/>
    <path id="Path_60" data-name="Path 60" d="M59.49,30.589a2.515,2.515,0,0,1-1.229-.32L43.592,22.078a2.518,2.518,0,0,1,.008-4.4L58.269,9.553a2.517,2.517,0,0,1,2.433,0l14.8,8.123a2.517,2.517,0,0,1,.008,4.41l-14.8,8.191a2.5,2.5,0,0,1-1.219.315M50,19.89l9.493,5.3,9.574-5.3L59.5,14.636Z" transform="translate(64.242 14.029)" fill="#fff"/>
    <path id="Path_61" data-name="Path 61" d="M59.49,44.638a2.5,2.5,0,0,1-1.227-.32L43.592,36.13a2.531,2.531,0,0,1-1.292-2.2V14.983a2.519,2.519,0,0,1,5.037,0v17.47L59.5,39.241l12.274-6.8V14.983a2.519,2.519,0,0,1,5.037,0V33.929a2.509,2.509,0,0,1-1.3,2.2l-14.8,8.191a2.527,2.527,0,0,1-1.219.315" transform="translate(64.242 18.929)" fill="#fff"/>
    <path id="Path_62" data-name="Path 62" d="M50.644,58.062a2.52,2.52,0,0,1-2.519-2.519V18.234a2.519,2.519,0,0,1,5.037,0v37.31a2.52,2.52,0,0,1-2.519,2.519" transform="translate(73.089 23.866)" fill="#fff"/>
    <path id="Path_63" data-name="Path 63" d="M17.19,51.878a2.5,2.5,0,0,1-1.227-.32L1.292,43.367a2.518,2.518,0,0,1,.008-4.4l14.672-8.123a2.512,2.512,0,0,1,2.431,0l14.8,8.123a2.517,2.517,0,0,1,.008,4.41l-14.8,8.191a2.492,2.492,0,0,1-1.219.315M7.7,41.179l9.493,5.3,9.574-5.3L17.2,35.925Z" transform="translate(0 46.362)" fill="#fff"/>
    <path id="Path_64" data-name="Path 64" d="M17.19,65.93a2.5,2.5,0,0,1-1.227-.32L1.292,57.419A2.519,2.519,0,0,1,0,55.22V36.272a2.519,2.519,0,0,1,5.037,0v17.47L17.2,60.53l12.274-6.793V36.272a2.519,2.519,0,0,1,5.037,0V55.22a2.52,2.52,0,0,1-1.3,2.2l-14.8,8.191a2.527,2.527,0,0,1-1.219.315" transform="translate(0 51.261)" fill="#fff"/>
    <path id="Path_65" data-name="Path 65" d="M8.344,60.991a2.52,2.52,0,0,1-2.519-2.519V39.524a2.519,2.519,0,0,1,5.037,0V58.472a2.52,2.52,0,0,1-2.519,2.519" transform="translate(8.847 56.2)" fill="#fff"/>
    <path id="Path_66" data-name="Path 66" d="M17.19,30.589a2.5,2.5,0,0,1-1.227-.32L1.292,22.078a2.518,2.518,0,0,1,.008-4.4L15.971,9.553a2.512,2.512,0,0,1,2.431,0l14.8,8.123a2.517,2.517,0,0,1,.008,4.41l-14.8,8.191a2.492,2.492,0,0,1-1.219.315M7.7,19.89l9.493,5.3,9.574-5.3L17.2,14.636Z" transform="translate(0 14.029)" fill="#fff"/>
    <path id="Path_67" data-name="Path 67" d="M17.19,44.638a2.5,2.5,0,0,1-1.227-.32L1.292,36.13A2.526,2.526,0,0,1,0,33.929V14.983a2.519,2.519,0,0,1,5.037,0v17.47L17.2,39.241l12.274-6.8V14.983a2.519,2.519,0,0,1,5.037,0V33.929a2.514,2.514,0,0,1-1.3,2.2l-14.8,8.191a2.527,2.527,0,0,1-1.219.315" transform="translate(0 18.929)" fill="#fff"/>
    <path id="Path_68" data-name="Path 68" d="M8.344,58.062a2.52,2.52,0,0,1-2.519-2.519V18.234a2.519,2.519,0,0,1,5.037,0v37.31a2.52,2.52,0,0,1-2.519,2.519" transform="translate(8.847 23.866)" fill="#fff"/>
    <path id="Path_69" data-name="Path 69" d="M35.352,39.985a2.519,2.519,0,0,1-1.222-4.723L60.232,20.8a2.519,2.519,0,1,1,2.441,4.408L36.569,39.67a2.5,2.5,0,0,1-1.217.315" transform="translate(49.859 31.118)" fill="#fff"/>
    <path id="Path_70" data-name="Path 70" d="M39.347,40.035a2.528,2.528,0,0,1-1.224-.317L12.1,25.209a2.518,2.518,0,1,1,2.451-4.4L40.577,35.315a2.519,2.519,0,0,1-1.229,4.72" transform="translate(16.407 31.119)" fill="#fff"/>
    <path id="Path_71" data-name="Path 71" d="M59.15,28.825a2.493,2.493,0,0,1-1.209-.312L34.177,15.468A2.519,2.519,0,1,1,36.6,11.053L60.364,24.1a2.518,2.518,0,0,1-1.214,4.725" transform="translate(49.921 16.31)" fill="#fff"/>
    <path id="Path_72" data-name="Path 72" d="M14.225,28.906A2.519,2.519,0,0,1,13,24.183l23.837-13.2a2.519,2.519,0,1,1,2.438,4.408l-23.837,13.2a2.5,2.5,0,0,1-1.217.315" transform="translate(17.773 16.204)" fill="#fff"/>
    <path id="Path_73" data-name="Path 73" d="M60.061,49.976a2.493,2.493,0,0,1-1.209-.312L33.577,35.788A2.519,2.519,0,0,1,36,31.373L61.275,45.251a2.518,2.518,0,0,1-1.214,4.725" transform="translate(49.01 47.17)" fill="#fff"/>
    <path id="Path_74" data-name="Path 74" d="M14.225,49.966A2.519,2.519,0,0,1,13,45.243L38.1,31.365a2.519,2.519,0,0,1,2.438,4.408l-25.1,13.878a2.5,2.5,0,0,1-1.217.315" transform="translate(17.773 47.156)" fill="#fff"/>
    <path id="Path_75" data-name="Path 75" d="M35.352,60.149a2.519,2.519,0,0,1-1.222-4.723L58.8,41.775a2.519,2.519,0,0,1,2.441,4.408L36.568,59.834a2.5,2.5,0,0,1-1.217.315" transform="translate(49.859 62.966)" fill="#fff"/>
    <path id="Path_76" data-name="Path 76" d="M38.483,60.227a2.5,2.5,0,0,1-1.224-.32L12.666,46.18a2.518,2.518,0,1,1,2.453-4.4L39.712,55.509a2.518,2.518,0,0,1-1.229,4.718" transform="translate(17.272 62.964)" fill="#fff"/>
  </g>
</svg>
